<svg width="109" height="26" viewBox="0 0 109 26" fill="none" xmlns="http://www.w3.org/2000/svg">
<path fill-rule="evenodd" clip-rule="evenodd" d="M68.213 19.1773C67.9969 19.7729 67.6994 20.2833 67.321 20.7086C66.9428 21.1342 66.491 21.4708 65.9659 21.7182C65.4407 21.9656 64.877 22.0896 64.2745 22.0896C63.6723 22.0896 63.1086 21.9656 62.5834 21.7182C62.0582 21.4708 61.6067 21.1342 61.2283 20.7086C60.8498 20.2833 60.5524 19.7729 60.3363 19.1773C60.1202 18.5817 60.0119 17.9436 60.0119 17.2629C60.0119 16.5819 60.1202 15.9438 60.3363 15.3485C60.5524 14.7526 60.8498 14.2422 61.2283 13.8169C61.6067 13.3912 62.0582 13.0547 62.5834 12.8073C63.1086 12.5599 63.6723 12.4359 64.2745 12.4359C64.877 12.4359 65.4407 12.5599 65.9659 12.8073C66.491 13.0547 66.9428 13.3912 67.321 13.8169C67.6994 14.2422 67.9969 14.7526 68.213 15.3485C68.4291 15.9438 68.5373 16.5819 68.5373 17.2629C68.5373 17.9436 68.4291 18.5817 68.213 19.1773ZM72.1494 13.9074C71.7155 12.8761 71.1228 11.9838 70.3716 11.2315C69.6204 10.479 68.7334 9.88576 67.7111 9.45129C66.6886 9.01713 65.5887 8.80005 64.4113 8.80005C63.2343 8.80005 62.1304 9.01713 61.1005 9.45129C60.07 9.88576 59.1793 10.479 58.4281 11.2315C57.6769 11.9838 57.0842 12.8761 56.6506 13.9074C56.2168 14.9391 56 16.0365 56 17.2002C56 18.3636 56.2168 19.461 56.6506 20.4927C57.0842 21.5243 57.6769 22.4163 58.4281 23.1686C59.1793 23.9211 60.07 24.5143 61.1005 24.9488C62.1304 25.383 63.2343 25.6 64.4113 25.6C65.5887 25.6 66.6886 25.383 67.7111 24.9488C68.7334 24.5143 69.6204 23.9211 70.3716 23.1686C71.1228 22.4163 71.7155 21.5243 72.1494 20.4927C72.5829 19.461 72.8 18.3636 72.8 17.2002C72.8 16.0365 72.5829 14.9391 72.1494 13.9074Z" fill="#F0F0F0"/>
<mask id="mask0" mask-type="alpha" maskUnits="userSpaceOnUse" x="38" y="8" width="16" height="18">
<path fill-rule="evenodd" clip-rule="evenodd" d="M38.4 8.80005H53.6V25.6H38.4V8.80005Z" fill="white"/>
</mask>
<g mask="url(#mask0)">
<path fill-rule="evenodd" clip-rule="evenodd" d="M49.0305 19.1441C48.8156 19.736 48.5212 20.248 48.1476 20.6801C47.7737 21.1121 47.3323 21.452 46.8232 21.7001C46.3142 21.9481 45.7735 22.0721 45.2005 22.0721H42.504V12.328H45.2005C45.7735 12.328 46.3142 12.456 46.8232 12.712C47.3323 12.9683 47.7737 13.3161 48.1476 13.7562C48.5212 14.1959 48.8156 14.7162 49.0305 15.316C49.2451 15.9159 49.3526 16.5602 49.3526 17.248C49.3526 17.9201 49.2451 18.5522 49.0305 19.1441ZM52.9439 13.924C52.5061 12.892 51.9097 12 51.1544 11.248C50.3984 10.4962 49.5076 9.90029 48.4816 9.45995C47.4556 9.01991 46.3617 8.80005 45.2005 8.80005H38.4V25.6H45.2005C46.3617 25.6 47.4556 25.3842 48.4816 24.9521C49.5076 24.52 50.3984 23.9281 51.1544 23.176C51.9097 22.424 52.5061 21.5362 52.9439 20.5119C53.3811 19.4883 53.6 18.4 53.6 17.248C53.6 16.0641 53.3811 14.9559 52.9439 13.924Z" fill="#F0F0F0"/>
</g>
<path fill-rule="evenodd" clip-rule="evenodd" d="M104.213 19.1773C103.997 19.7729 103.699 20.2833 103.321 20.7086C102.943 21.1342 102.491 21.4708 101.966 21.7182C101.441 21.9656 100.877 22.0896 100.274 22.0896C99.672 22.0896 99.1086 21.9656 98.5834 21.7182C98.0582 21.4708 97.6067 21.1342 97.228 20.7086C96.8498 20.2833 96.5524 19.7729 96.336 19.1773C96.1198 18.5817 96.0119 17.9436 96.0119 17.2629C96.0119 16.5819 96.1198 15.9438 96.336 15.3485C96.5524 14.7526 96.8498 14.2422 97.228 13.8169C97.6067 13.3912 98.0582 13.0547 98.5834 12.8073C99.1086 12.5599 99.672 12.4359 100.274 12.4359C100.877 12.4359 101.441 12.5599 101.966 12.8073C102.491 13.0547 102.943 13.3912 103.321 13.8169C103.699 14.2422 103.997 14.7526 104.213 15.3485C104.429 15.9438 104.537 16.5819 104.537 17.2629C104.537 17.9436 104.429 18.5817 104.213 19.1773ZM108.149 13.9074C107.716 12.8761 107.123 11.9838 106.372 11.2315C105.621 10.479 104.734 9.88576 103.711 9.45129C102.689 9.01713 101.589 8.80005 100.411 8.80005C99.2346 8.80005 98.1304 9.01713 97.1005 9.45129C96.0703 9.88576 95.1796 10.479 94.4284 11.2315C93.6769 11.9838 93.0845 12.8761 92.6506 13.9074C92.2168 14.9391 92 16.0365 92 17.2002C92 18.3636 92.2168 19.461 92.6506 20.4927C93.0845 21.5243 93.6769 22.4163 94.4284 23.1686C95.1796 23.9211 96.0703 24.5143 97.1005 24.9488C98.1304 25.383 99.2346 25.6 100.411 25.6C101.589 25.6 102.689 25.383 103.711 24.9488C104.734 24.5143 105.621 23.9211 106.372 23.1686C107.123 22.4163 107.716 21.5243 108.149 20.4927C108.583 19.461 108.8 18.3636 108.8 17.2002C108.8 16.0365 108.583 14.9391 108.149 13.9074Z" fill="#F0F0F0"/>
<path fill-rule="evenodd" clip-rule="evenodd" d="M85.7387 19.2764C85.5266 19.8705 85.2355 20.3843 84.8662 20.8179C84.4964 21.2515 84.06 21.5927 83.5568 21.8416C83.0536 22.0905 82.5191 22.215 81.953 22.215H79.2874V12.4359H81.953C82.5191 12.4359 83.0536 12.5643 83.5568 12.8212C84.06 13.0785 84.4964 13.4276 84.8662 13.8692C85.2355 14.3105 85.5266 14.8326 85.7387 15.4347C85.9509 16.0367 86.0571 16.6833 86.0571 17.3735C86.0571 18.0481 85.9509 18.6824 85.7387 19.2764ZM89.7439 13.924C89.3064 12.892 88.7097 12 87.9543 11.248C87.1983 10.4962 86.3075 9.90029 85.2815 9.45995C84.2555 9.01991 83.1618 8.80005 82.0006 8.80005H75.2V25.6H82.0006C83.1618 25.6 84.2555 25.3842 85.2815 24.9521C86.3075 24.52 87.1983 23.9281 87.9543 23.176C88.7097 22.424 89.3064 21.5362 89.7439 20.5119C90.1811 19.4883 90.4 18.4 90.4 17.248C90.4 16.0641 90.1811 14.9559 89.7439 13.924Z" fill="#F0F0F0"/>
<mask id="mask1" mask-type="alpha" maskUnits="userSpaceOnUse" x="0" y="0" width="34" height="26">
<path fill-rule="evenodd" clip-rule="evenodd" d="M0.0258942 0.0581055H33.5358V25.5966H0.0258942V0.0581055Z" fill="white"/>
</mask>
<g mask="url(#mask1)">
<path fill-rule="evenodd" clip-rule="evenodd" d="M20.7496 6.79342C20.8947 6.56544 21.0262 6.31245 21.1369 6.03884C21.3277 5.56699 21.4331 5.09599 21.4586 4.66707C21.5625 3.76191 21.344 3.02676 20.8303 2.80773C20.3252 2.59243 19.6632 2.92975 19.0959 3.61014C19.0969 3.56502 19.0978 3.5199 19.0978 3.47427C19.0978 1.58772 18.2413 0.0581055 17.1847 0.0581055C16.1281 0.0581055 15.2716 1.58772 15.2716 3.47427C15.2716 3.60812 15.2763 3.73994 15.2847 3.86973C14.642 2.98772 13.7971 2.53581 13.1936 2.827C12.4388 3.19136 12.3475 4.57885 12.9898 5.92629C13.0974 6.15241 13.3389 6.54094 13.47 6.73309C5.27707 8.0398 0.613063 14.6871 0.0258942 25.5967H4.60871C5.09195 16.6155 9.26598 11.5425 16.8067 11.6981C23.7313 11.8411 29.0234 16.3879 28.9523 25.5967H33.5348C33.6185 14.7324 28.2789 8.4819 20.7496 6.79342Z" fill="#F0F0F0"/>
</g>
<path fill-rule="evenodd" clip-rule="evenodd" d="M13.0001 17C12.4477 17 12 17.5025 12 18.122V20.878C12 21.4977 12.4477 22 13.0001 22C13.5523 22 14 21.4977 14 20.878V18.122C14 17.5025 13.5523 17 13.0001 17Z" fill="#F0F0F0"/>
<path fill-rule="evenodd" clip-rule="evenodd" d="M20.9999 17C20.4477 17 20 17.5025 20 18.122V20.878C20 21.4977 20.4477 22 20.9999 22C21.5523 22 22 21.4977 22 20.878V18.122C22 17.5025 21.5523 17 20.9999 17Z" fill="#F0F0F0"/>
</svg>
